<svg width="12" height="17" viewBox="0 0 12 17" fill="none" xmlns="http://www.w3.org/2000/svg">
<path fill-rule="evenodd" clip-rule="evenodd" d="M9.50308 3.34077C7.74763 0.886411 4.25237 0.886411 2.49692 3.34077C1.28146 5.04014 1.16701 7.34787 2.21081 9.17208L5.73976 15.3395C5.86219 15.5535 6.1378 15.5535 6.26023 15.3395L9.78918 9.17208C10.833 7.34787 10.7185 5.04014 9.50308 3.34077ZM1.68355 2.75902C3.83786 -0.253006 8.16213 -0.253006 10.3164 2.75902C11.7606 4.77812 11.8939 7.50723 10.6571 9.66872L7.12819 15.8362C6.62173 16.7213 5.37826 16.7213 4.8718 15.8362L1.34285 9.66872C0.106066 7.50723 0.239407 4.77812 1.68355 2.75902ZM6 4.48937C5.17361 4.48937 4.46368 5.19889 4.46368 6.12466C4.46368 7.05043 5.17361 7.75995 6 7.75995C6.82639 7.75995 7.53631 7.05043 7.53631 6.12466C7.53631 5.19889 6.82639 4.48937 6 4.48937ZM3.46368 6.12466C3.46368 4.69186 4.57713 3.48937 6 3.48937C7.42286 3.48937 8.53631 4.69186 8.53631 6.12466C8.53631 7.55746 7.42286 8.75995 6 8.75995C4.57713 8.75995 3.46368 7.55746 3.46368 6.12466Z" fill="#D3D7DE"/>
</svg>
