<svg width="504" height="504" viewBox="0 0 504 504" fill="none" xmlns="http://www.w3.org/2000/svg">
<rect width="504" height="504" rx="56" fill="white"/>
<path fill-rule="evenodd" clip-rule="evenodd" d="M439.294 266.692C436.178 306.047 422.254 341.106 397.246 371.526C370.756 403.749 337.108 424.819 296.642 434.762C278.293 439.269 259.634 440.934 240.808 439.498C188.128 435.476 144.453 413.301 110.139 373.003C89.0579 348.248 75.7696 319.586 69.5865 287.623C68.1185 280.03 67.3516 272.34 66.6366 264.636C66.1323 259.206 66.1047 253.766 66.4121 248.372C66.8577 240.543 70.5261 234.347 77.8006 231.002C84.7401 227.808 91.4344 228.758 97.2685 233.775C101.179 237.135 103.389 241.476 103.355 246.787L103.352 247.311C103.311 254.285 103.27 261.253 103.887 268.217C105.434 285.691 109.863 302.368 117.531 318.129C123.255 329.89 129.976 341.047 138.695 350.869C145.002 357.977 152.543 363.073 162.045 364.838C164.187 365.237 166.346 365.504 168.522 365.656C169.348 365.715 169.576 365.514 169.513 364.616C168.864 354.815 168.425 345.006 169.344 335.201C170.415 323.75 172.764 312.596 177.075 301.883C179.724 295.302 183.271 289.401 188.822 284.88C189.628 284.224 189.23 283.893 188.83 283.562C188.74 283.487 188.65 283.412 188.574 283.334C182.173 276.701 176.885 269.271 172.712 261.044C171.437 258.53 170.218 255.985 169.289 253.326C168.912 252.255 168.373 251.943 167.244 251.87C151.095 250.861 139.058 243.206 131.942 228.641C119.89 203.969 135.52 174.495 162.563 170.418C166.791 169.78 171.044 169.752 175.258 170.574C176.522 170.82 177.202 170.515 177.945 169.412C192.069 148.405 211.468 135.092 236.228 130.123C271.927 122.96 308.093 138.007 328.676 168.272C329.488 169.464 330.279 169.766 331.63 169.683C354.148 168.296 373.581 184.352 376.617 206.808C379.664 229.337 365.084 250.258 343.022 255.004C342.81 255.05 342.596 255.105 342.382 255.161C341.812 255.309 341.236 255.458 340.676 255.42C337.899 255.24 336.635 256.655 335.516 259.12C331.177 268.665 324.363 277.807 316.923 285.171C316.004 286.079 316.121 286.475 316.975 287.307C323.147 293.343 327.495 300.156 330.096 308.234C333.713 319.464 335.443 331.041 335.782 342.812C336.113 354.347 335.405 365.843 334.21 377.316C334.12 378.176 332.96 378.457 332.96 378.457C332.96 378.457 332.217 378.45 331.844 378.45C316.841 378.45 301.838 378.438 286.836 378.426C249.157 378.395 211.478 378.365 173.8 378.526C153.904 378.609 138.097 371.006 125.942 355.383C108.92 333.506 97.462 309.108 92.8679 281.621C91.0337 270.644 90.3325 259.574 90.8541 248.462C91.0579 244.114 88.0804 241.926 85.4932 241.919C82.1495 241.912 79.1754 244.988 79.1063 248.607C78.7367 268.221 81.4206 287.394 87.4241 306.078C105.269 361.607 149.849 404.765 205.841 420.606C225.872 426.275 246.3 428.327 267.043 426.504C314.21 422.354 353.478 402.314 384.659 366.648C405.446 342.871 418.482 315.169 424.223 284.038C427.322 267.24 427.936 250.334 426.04 233.373C422.168 198.74 409.222 167.88 387.042 141.062C365.118 114.549 337.692 96.0938 304.929 85.7238C284.235 79.1745 263.015 76.692 241.388 78.221C203.047 80.9323 169.213 94.8769 139.907 119.833C131.127 127.311 123.234 135.66 116.084 144.723C115.344 145.659 115.365 146.179 116.087 147.098C129.261 163.827 120.971 188.277 100.381 193.491C83.5277 197.759 66.6228 185.988 64.6643 168.625C62.6332 150.624 76.8956 135.3 94.937 136.128C97.9732 136.267 100.93 136.901 103.776 138.007C103.847 138.035 103.916 138.064 103.984 138.093C104.427 138.283 104.831 138.456 105.289 137.855C108.571 133.535 112.104 129.419 115.773 125.366C115.034 124.714 114.297 124.069 113.564 123.428C111.658 121.76 109.777 120.115 107.956 118.405C107.265 117.755 106.805 118.032 106.313 118.328C106.224 118.381 106.135 118.435 106.042 118.484C91.5518 126.122 73.7212 120.117 66.7679 105.254C61.7687 94.5652 63.5999 81.4184 71.7869 72.899C79.1094 65.2729 92.7387 61.5063 102.933 65.8123C113.631 70.323 119.963 78.3112 121.479 89.867C122.108 94.6654 121.545 99.45 119.576 103.981C118.702 105.996 118.833 106.259 120.488 107.653C122.277 109.161 124.018 110.728 125.749 112.302C127.002 113.443 127.303 113.367 128.557 112.24C138.204 103.555 148.646 95.9655 159.883 89.4856C175.703 80.3602 192.522 73.7311 210.273 69.5255C218.297 67.6256 226.425 66.3428 234.632 65.5003C242.895 64.6543 251.178 64.5191 259.454 64.7341C273.903 65.1085 288.103 67.3274 302.058 71.1204C314.88 74.6048 327.198 79.3894 338.991 85.5192C352.023 92.2904 364.082 100.514 375.215 110.122C380.783 114.927 386.047 120.055 391.001 125.464C398.814 133.999 405.798 143.194 411.919 153.051C420.576 166.985 427.28 181.8 432.102 197.475C435.197 207.536 437.339 217.806 438.7 228.252C440.345 240.858 440.296 254 439.294 266.692ZM80.039 93.2715C80.0804 100.167 85.8041 105.802 92.7332 105.77C99.7003 105.739 105.296 100.119 105.289 93.164C105.282 86.0218 99.6209 80.3496 92.5467 80.3982C85.6072 80.4467 79.9975 86.2194 80.039 93.2715ZM106.498 165.3C106.477 172.428 100.602 178.343 93.5415 178.347C86.2635 178.35 80.3499 172.425 80.3844 165.168C80.4224 157.978 86.3153 152.118 93.5138 152.115C100.636 152.111 106.519 158.085 106.498 165.3ZM289.151 238.445C291.925 242.332 293.738 246.485 294.267 251.141C295.237 259.67 292.301 266.868 286.588 272.998C280.053 280.012 271.793 283.978 262.54 285.843C249.583 288.458 237.058 287.13 225.283 280.851C218.523 277.249 212.982 272.28 209.68 265.187C205.732 256.716 206.367 248.441 211.134 240.48C211.846 239.294 212.032 238.875 210.519 238.22C197.044 232.371 189.321 218.284 191.276 203.361C193.096 189.476 204.461 177.677 218.36 175.666C231.217 173.808 241.718 178.222 249.78 188.456C250.073 188.831 250.353 189.212 250.702 189.673C255.047 183.013 260.895 178.378 268.37 175.954C274.702 173.902 281.109 173.832 287.503 175.739C300.346 179.567 309.686 191.029 310.823 204.228C312.08 218.936 303.71 233.036 289.151 238.445ZM166.748 224.216C164.62 224.202 162.523 223.966 160.478 223.328C155.014 221.623 152.16 217.892 152.102 212.126C152.057 207.505 153.518 203.323 156.333 199.686C159.304 195.845 163.383 194.812 167.998 195.519C170.26 195.866 172.392 196.684 174.426 197.738C174.462 197.756 174.497 197.774 174.532 197.792C174.957 198.007 175.314 198.188 174.941 198.892C171.597 205.206 171.138 212.088 171.1 219.047C171.097 219.595 171.109 220.145 171.122 220.694L171.122 220.699L171.128 220.964C171.186 224.095 171.186 224.095 168.022 224.216C167.739 224.225 167.456 224.222 167.172 224.219C167.031 224.218 166.889 224.216 166.748 224.216ZM333.795 218.273L333.795 218.278C333.809 219.257 333.823 220.235 333.755 221.207C333.686 222.198 333.917 222.59 334.985 222.725C337.33 223.023 339.648 222.964 341.966 222.6C347.541 221.723 351.389 218.502 352.239 213.766C353.309 207.796 351.631 202.488 347.845 197.849C346.29 195.938 344.197 194.805 341.755 194.351C338.152 193.681 334.836 194.635 331.565 196.029C330.221 196.601 329.389 197.117 330.563 198.667C330.98 199.217 331.203 199.923 331.422 200.617C333.118 205.99 333.833 211.415 333.783 217.053C333.783 217.46 333.789 217.867 333.795 218.273Z" fill="#202020"/>
<path d="M266.462 235.664C266.462 238.77 263.944 241.288 260.838 241.288C257.732 241.288 255.214 238.77 255.214 235.664C255.214 232.558 257.732 230.04 260.838 230.04C263.944 230.04 266.462 232.558 266.462 235.664Z" fill="#202020"/>
<path d="M296.992 202.724C296.992 211.894 289.558 219.328 280.388 219.328C271.217 219.328 263.784 211.894 263.784 202.724C263.784 193.554 271.217 186.12 280.388 186.12C289.558 186.12 296.992 193.554 296.992 202.724Z" fill="#202020"/>
<path d="M242.359 202.724C242.359 211.894 234.925 219.328 225.755 219.328C216.585 219.328 209.151 211.894 209.151 202.724C209.151 193.554 216.585 186.12 225.755 186.12C234.925 186.12 242.359 193.554 242.359 202.724Z" fill="#202020"/>
<path d="M247.179 235.664C247.179 238.77 244.661 241.288 241.555 241.288C238.449 241.288 235.931 238.77 235.931 235.664C235.931 232.558 238.449 230.04 241.555 230.04C244.661 230.04 247.179 232.558 247.179 235.664Z" fill="#202020"/>
</svg>
