<svg width="414" height="130" viewBox="0 0 414 130" fill="none" xmlns="http://www.w3.org/2000/svg">
<path fill-rule="evenodd" clip-rule="evenodd" d="M414 0H0V80L193.604 127.699C202.403 129.867 211.597 129.867 220.396 127.699L414 80V0ZM157.685 82L155 48.0002H162.358L164.159 72.6518L174.593 48.0002H183.14L184.789 72.6691L195.104 48.0002H202.648L188.544 82H178.926L177.363 56.9676L167.014 82H157.685ZM199.658 82H207.169L211.944 54.6305H218.843C220.319 54.6046 221.545 55.6865 221.511 56.7598C221.477 57.8331 221.171 60.0663 220.814 62.1091C220.117 64.3076 219.421 64.6885 218.248 64.9655C217.076 65.2425 215.189 65.1386 215.189 65.1386L213.932 71.6131H217.025C220.712 71.6131 225.538 70.2628 226.966 66.6101C228.393 63.5286 229.294 57.0022 229.294 54.8036C228.609 47.9853 220.335 47.9975 218.575 48.0001L218.486 48.0002H205.605L199.658 82ZM239.489 48.0002H231.707L238.402 64.1518L224.909 81.9827H233.525L241.766 71.1111L246.44 81.9827H254.46L246.932 65.1386L260 48.0002H251.486L243.874 58.8199L239.489 48.0002Z" fill="#14284A"/>
</svg>
