<svg width="25" height="25" viewBox="0 0 25 25" fill="none" xmlns="http://www.w3.org/2000/svg">
<path fill-rule="evenodd" clip-rule="evenodd" d="M24.2568 10.0838C24.0995 9.31293 23.8631 8.55372 23.5572 7.82849C23.2567 7.11637 22.8839 6.43095 22.4509 5.79018C22.0213 5.15476 21.5285 4.55768 20.9858 4.01546C20.4435 3.47227 19.8459 2.97908 19.2109 2.55044C18.5701 2.11599 17.8837 1.74464 17.1725 1.44318C16.4472 1.13785 15.6885 0.900963 14.9171 0.744655C14.1272 0.582523 13.3136 0.5 12.501 0.5C11.6873 0.5 10.8747 0.582523 10.0839 0.744655C9.31298 0.900963 8.55372 1.13834 7.82894 1.44318C7.11774 1.74464 6.43131 2.11647 5.78953 2.55044C5.15407 2.97908 4.55696 3.47178 4.0147 4.01546C3.47196 4.55768 2.97971 5.15525 2.55057 5.79018C2.11706 6.43095 1.74471 7.11637 1.44421 7.82849C1.13692 8.55372 0.901472 9.31293 0.743699 10.0838C0.582042 10.8726 0.5 11.6862 0.5 12.4993C0.5 13.3138 0.582042 14.1274 0.743699 14.9167C0.901472 15.6876 1.1374 16.4468 1.44373 17.1715C1.74422 17.8827 2.11706 18.57 2.55008 19.2108C2.97923 19.8462 3.47148 20.4423 4.01422 20.9855C4.55647 21.5277 5.15407 22.02 5.78905 22.4496C6.43082 22.883 7.11726 23.2554 7.82845 23.5558C8.55275 23.8631 9.31249 24.0971 10.0834 24.2553C10.8742 24.4184 11.6869 24.5 12.5005 24.5C13.3131 24.5 14.1268 24.4184 14.9166 24.2553C15.6885 24.0971 16.4468 23.8626 17.172 23.5558C17.8832 23.2554 18.5697 22.8826 19.2105 22.4496C19.8459 22.02 20.443 21.5282 20.9853 20.9855C21.5275 20.4423 22.0208 19.8457 22.4504 19.2108C22.8839 18.57 23.2563 17.8827 23.5568 17.1715C23.8631 16.4472 24.099 15.6876 24.2563 14.9167C24.4184 14.1269 24.5 13.3133 24.5 12.4993C24.5005 11.6862 24.4189 10.8726 24.2568 10.0838ZM22.7451 12.3978C22.597 12.3658 19.1289 11.6192 15.6074 12.0619C15.5356 11.8867 15.4623 11.71 15.3865 11.5328C15.1734 11.0313 14.9438 10.5343 14.7049 10.0464C18.7527 8.39499 20.3959 6.01882 20.4149 5.99067C21.8523 7.73529 22.7218 9.96534 22.7451 12.3978ZM19.2692 4.80865C19.2435 4.84846 17.7842 7.06977 13.9161 8.51974C12.1641 5.30087 10.2392 2.74413 10.0853 2.54122C10.8601 2.35336 11.6679 2.25191 12.5005 2.25191C15.0957 2.25191 17.4633 3.21888 19.2692 4.80865ZM10.0455 2.54947L10.0436 2.55141C10.0436 2.55141 10.0324 2.55433 10.0135 2.55821C10.0237 2.5553 10.0353 2.55336 10.0455 2.54947ZM8.12749 3.23101C8.26391 3.41402 10.1596 5.98338 11.9335 9.13575C7.0124 10.443 2.74184 10.392 2.47095 10.3872C3.137 7.21297 5.26961 4.58099 8.12749 3.23101ZM2.25201 12.4993C2.25201 12.3901 2.25687 12.2833 2.26075 12.1755C2.44134 12.1794 7.50562 12.2944 12.782 10.7153C13.0758 11.2901 13.3568 11.874 13.6136 12.4575C13.4782 12.4954 13.3432 12.5362 13.2097 12.5799C7.67893 14.3672 4.87348 19.3438 4.87348 19.3438C4.87348 19.3438 4.87736 19.3467 4.87736 19.3486C3.24574 17.5327 2.25201 15.1322 2.25201 12.4993ZM12.5005 22.7481C10.0203 22.7481 7.97506 22.0457 6.20217 20.5787C6.20217 20.5787 8.16681 16.2943 14.2442 14.1769C14.2671 14.1682 14.2899 14.1619 14.3127 14.1551C15.755 17.9021 16.3502 21.0404 16.5021 21.936C15.272 22.4593 13.92 22.7481 12.5005 22.7481ZM18.2274 21.0001C18.123 20.3812 17.5769 17.3734 16.2327 13.6798C19.5406 13.1507 22.4082 14.058 22.6193 14.1274C22.163 16.9827 20.5285 19.4457 18.2274 21.0001Z" fill="#F9F9F9"/>
</svg>
