<svg width="25" height="25" viewBox="0 0 25 25" fill="none" xmlns="http://www.w3.org/2000/svg">
<path d="M12.5 6.25806C9.1129 6.25806 6.30645 9.01613 6.30645 12.4516C6.30645 15.8871 9.06452 18.6452 12.5 18.6452C15.9355 18.6452 18.6935 15.8387 18.6935 12.4516C18.6935 9.06452 15.8871 6.25806 12.5 6.25806ZM12.5 16.4194C10.3226 16.4194 8.53226 14.629 8.53226 12.4516C8.53226 10.2742 10.3226 8.48387 12.5 8.48387C14.6774 8.48387 16.4677 10.2742 16.4677 12.4516C16.4677 14.629 14.6774 16.4194 12.5 16.4194Z" fill="#F9F9F9"/>
<path d="M18.9355 7.51613C19.7105 7.51613 20.3387 6.88788 20.3387 6.1129C20.3387 5.33792 19.7105 4.70968 18.9355 4.70968C18.1605 4.70968 17.5323 5.33792 17.5323 6.1129C17.5323 6.88788 18.1605 7.51613 18.9355 7.51613Z" fill="#F9F9F9"/>
<path d="M22.5645 2.48387C21.3065 1.17742 19.5161 0.5 17.4839 0.5H7.51613C3.30645 0.5 0.5 3.30645 0.5 7.51613V17.4355C0.5 19.5161 1.17742 21.3065 2.53226 22.6129C3.83871 23.871 5.58065 24.5 7.56452 24.5H17.4355C19.5161 24.5 21.2581 23.8226 22.5161 22.6129C23.8226 21.3548 24.5 19.5645 24.5 17.4839V7.51613C24.5 5.48387 23.8226 3.74194 22.5645 2.48387ZM22.371 17.4839C22.371 18.9839 21.8387 20.1935 20.9677 21.0161C20.0968 21.8387 18.8871 22.2742 17.4355 22.2742H7.56452C6.1129 22.2742 4.90323 21.8387 4.03226 21.0161C3.16129 20.1452 2.72581 18.9355 2.72581 17.4355V7.51613C2.72581 6.06452 3.16129 4.85484 4.03226 3.98387C4.85484 3.16129 6.1129 2.72581 7.56452 2.72581H17.5323C18.9839 2.72581 20.1936 3.16129 21.0645 4.03226C21.8871 4.90323 22.371 6.1129 22.371 7.51613V17.4839Z" fill="#F9F9F9"/>
</svg>
