<svg width="25" height="25" viewBox="0 0 25 25" fill="none" xmlns="http://www.w3.org/2000/svg">
<path d="M3.37647 6.09498H3.34201C1.61641 6.09498 0.5 4.85125 0.5 3.29749C0.5 1.70912 1.65086 0.5 3.41024 0.5C5.1703 0.5 6.25294 1.70912 6.2874 3.29749C6.2874 4.85125 5.16962 6.09498 3.37647 6.09498Z" fill="#F9F9F9"/>
<path d="M5.94834 24.5H0.803911V8.30701H5.94834V24.5Z" fill="#F9F9F9"/>
<path d="M24.4993 24.5H19.3549V15.835C19.3549 13.659 18.6106 12.1737 16.7492 12.1737C15.3282 12.1737 14.482 13.1752 14.1091 14.1428C13.9734 14.4882 13.9403 14.9712 13.9403 15.4557V24.4993H8.79587C8.79587 24.4993 8.86341 9.824 8.79587 8.30629H13.9403V10.5984C14.6239 9.49522 15.8465 7.92416 18.5775 7.92416C21.9619 7.92416 24.5 10.2393 24.5 15.2135L24.4993 24.5Z" fill="#F9F9F9"/>
</svg>
